<?xml version="1.0" encoding="UTF-8"?>
<!-- Generated by Pixelmator Pro 3.6.17 -->
<svg width="80" height="12" viewBox="0 0 80 12" xmlns="http://www.w3.org/2000/svg">
    <path id="Path1007" fill="#343d45" stroke="none" d="M 50.506641 7.304348 C 50.506641 9.339079 49.546616 9.339079 49.066666 9.339079 C 48.58672 9.339079 47.626694 9.339079 47.626694 7.304348 L 47.626694 1.565217 L 45.173306 1.565217 L 45.173306 7.66954 C 45.173306 10.017365 46.773308 11.686906 49.066666 11.686906 C 51.360027 11.686906 52.960026 10.017365 52.960026 7.66954 L 52.960026 1.565217 L 50.506641 1.565217 L 50.506641 7.304348 Z"/>
    <path id="Path1008" fill="#343d45" stroke="none" d="M 74.560028 1.252123 C 71.573311 1.252123 69.120049 3.599949 69.120049 6.573964 C 69.120049 9.495626 71.573311 11.895678 74.560028 11.895678 C 77.546616 11.895678 80 9.495626 80 6.573964 C 80 3.652174 77.546616 1.252123 74.560028 1.252123 Z M 74.560028 9.443529 C 72.906639 9.443529 71.626694 8.139181 71.626694 6.521739 C 71.626694 4.956522 72.906639 3.652174 74.506638 3.599949 C 76.106644 3.599949 77.439972 4.8522 77.493362 6.417417 C 77.493362 6.417417 77.493362 6.469514 77.493362 6.469514 C 77.493362 8.139181 76.160027 9.443529 74.560028 9.443529 Z"/>
    <path id="Path1009" fill="#343d45" stroke="none" d="M 5.49336 -0.104322 L 0 11.582583 L 2.773307 11.582583 L 3.839974 9.339079 L 7.146615 9.339079 L 8.213282 11.582583 L 10.986719 11.582583 L 5.49336 -0.104322 Z M 4.426692 7.356573 L 5.439974 4.904297 L 6.453385 7.356573 L 4.426692 7.356573 Z"/>
    <path id="Path1010" fill="#343d45" stroke="none" d="M 17.333334 1.617442 L 13.333333 1.617442 L 13.333333 11.478261 L 15.839974 11.478261 L 15.839974 8.660921 L 17.173307 8.660921 C 19.626692 8.660921 21.173307 7.304348 21.173307 5.113069 L 21.173307 5.060844 C 21.226692 2.92179 19.733334 1.617442 17.333334 1.617442 Z M 18.666666 5.217391 C 18.666666 6.052225 18.079948 6.573964 17.120052 6.573964 L 15.839974 6.573964 L 15.839974 3.860819 L 17.120052 3.860819 C 18.133333 3.808722 18.666666 4.33046 18.666666 5.217391 L 18.666666 5.217391 Z"/>
    <path id="Path1011" fill="#343d45" stroke="none" d="M 27.679949 1.617442 L 23.679949 1.617442 L 23.679949 11.478261 L 26.186718 11.478261 L 26.186718 8.660921 L 27.520052 8.660921 C 29.973307 8.660921 31.520052 7.304348 31.520052 5.113069 L 31.520052 5.060844 C 31.573307 2.92179 30.079948 1.617442 27.679949 1.617442 Z M 29.013281 5.217391 C 29.013281 6.052225 28.426693 6.573964 27.466667 6.573964 L 26.186718 6.573964 L 26.186718 3.860819 L 27.466667 3.860819 C 28.479948 3.808722 29.013281 4.33046 29.013281 5.217391 L 29.013281 5.217391 Z"/>
    <path id="Path1012" fill="#343d45" stroke="none" d="M 38.986717 4.747877 C 37.013283 4.226138 36.58672 4.017366 36.58672 3.33908 L 36.58672 3.286982 C 36.58672 2.765243 37.120052 2.400051 37.973309 2.400051 C 39.039974 2.452148 40.053387 2.81734 40.906639 3.495626 L 40.960026 3.547852 L 42.346615 1.565217 L 42.293358 1.512993 C 41.066666 0.573964 39.520054 0.052225 37.973309 0.052225 C 35.573307 0.052225 33.866665 1.460895 33.866665 3.495626 L 33.866665 3.547852 C 33.866665 5.895678 35.520054 6.521739 37.760025 7.043478 C 39.679947 7.512992 40 7.826087 40 8.400051 L 40 8.452148 C 40 9.07821 39.41328 9.443529 38.453384 9.443529 C 37.226692 9.391304 36 8.92179 35.093361 8.086956 L 35.039974 8.034732 L 33.439976 9.913044 L 33.493359 9.965268 C 34.826694 11.165167 36.58672 11.791355 38.400002 11.791355 C 41.066666 11.791355 42.720051 10.434783 42.720051 8.243504 L 42.720051 8.191278 C 42.720051 6.104322 41.226692 5.269616 38.986717 4.747877 Z"/>
    <path id="Path1013" fill="#343d45" stroke="none" d="M 61.226692 12 L 58.186718 6.991253 L 57.279949 11.634809 L 55.093361 11.634809 L 57.333332 1.252123 L 61.279949 7.773862 L 65.013283 1.252123 L 67.253387 11.634809 L 64.906639 11.634809 L 64.053383 7.043478 L 61.226692 12 Z"/>
</svg>
